<svg width="1200" height="630" viewBox="0 0 1200 630" fill="none" xmlns="http://www.w3.org/2000/svg">
  <!-- Background gradient -->
  <defs>
    <linearGradient id="bgGradient" x1="0%" y1="0%" x2="100%" y2="100%">
      <stop offset="0%" style="stop-color:#1E40AF;stop-opacity:1" />
      <stop offset="50%" style="stop-color:#3B82F6;stop-opacity:1" />
      <stop offset="100%" style="stop-color:#60A5FA;stop-opacity:1" />
    </linearGradient>
  </defs>
  
  <!-- Background -->
  <rect width="1200" height="630" fill="url(#bgGradient)"/>
  
  <!-- Large map pin icon -->
  <g transform="translate(300, 150)">
    <path d="M300 0C134.315 0 0 134.315 0 300c0 165.685 300 300 300 300s300-134.315 300-300C600 134.315 465.685 0 300 0z" fill="rgba(255,255,255,0.15)"/>
    <path d="M300 50C167.908 50 50 167.908 50 300c0 132.092 250 250 250 250s250-117.908 250-250C550 167.908 432.092 50 300 50z" fill="rgba(255,255,255,0.25)"/>
    <circle cx="300" cy="300" r="120" fill="rgba(255,255,255,0.9)"/>
    <circle cx="300" cy="300" r="90" fill="#3B82F6"/>
    <circle cx="300" cy="300" r="60" fill="white"/>
  </g>
  
  <!-- PayMap Logo -->
  <text x="600" y="400" text-anchor="middle" font-family="Arial, sans-serif" font-size="96" font-weight="900" fill="black" letter-spacing="-2">
    PayMap
  </text>
  
  <!-- Tagline -->
  <text x="600" y="470" text-anchor="middle" font-family="Arial, sans-serif" font-size="36" font-weight="400" fill="black">
    Restaurant Payment Methods in Japan
  </text>
  
  <!-- Bottom accent line -->
  <line x1="200" y1="550" x2="1000" y2="550" stroke="rgba(255,255,255,0.3)" stroke-width="4"/>
</svg>
